<svg width="30" height="30" viewBox="0 0 30 30" fill="none" xmlns="http://www.w3.org/2000/svg">
<path d="M26.2 0.600037H3.79998C2.03998 0.600037 0.599976 2.04004 0.599976 3.80004V26.2C0.599976 27.9616 2.03998 29.4 3.79998 29.4H15V18.2H11.8V14.24H15V10.96C15 7.49764 16.9392 5.06564 21.0256 5.06564L23.9104 5.06884V9.23684H21.9952C20.4048 9.23684 19.8 10.4304 19.8 11.5376V14.2416H23.9088L23 18.2H19.8V29.4H26.2C27.96 29.4 29.4 27.9616 29.4 26.2V3.80004C29.4 2.04004 27.96 0.600037 26.2 0.600037Z" fill="white"/>
</svg>
