<svg width="32" height="32" viewBox="0 0 32 32" fill="none" xmlns="http://www.w3.org/2000/svg">
<rect width="32" height="32" rx="3.15556" fill="white"/>
<path d="M24.9601 4.48004H7.0401C5.6321 4.48004 4.4801 5.63204 4.4801 7.04004V24.96C4.4801 26.3693 5.6321 27.52 7.0401 27.52H24.9601C26.3681 27.52 27.5201 26.3693 27.5201 24.96V7.04004C27.5201 5.63204 26.3681 4.48004 24.9601 4.48004ZM15.9796 23.0695C17.8598 23.0691 19.6628 22.322 20.9921 20.9924C22.3215 19.6629 23.0683 17.8597 23.0683 15.9796C23.0683 15.5469 23.0132 15.1296 22.9364 14.72H24.9601V23.9565C24.9601 24.0728 24.9371 24.188 24.8925 24.2954C24.8479 24.4028 24.7825 24.5003 24.7001 24.5824C24.6176 24.6645 24.5198 24.7294 24.4122 24.7736C24.3046 24.8178 24.1894 24.8402 24.0731 24.8397H7.92714C7.81084 24.8402 7.69558 24.8178 7.58798 24.7736C7.48038 24.7294 7.38256 24.6645 7.30014 24.5824C7.21772 24.5003 7.15232 24.4028 7.1077 24.2954C7.06307 24.188 7.0401 24.0728 7.0401 23.9565V14.72H9.02282C8.94474 15.1296 8.8897 15.5469 8.8897 15.9796C8.89004 17.8598 9.63712 19.663 10.9667 20.9925C12.2962 22.3221 14.0994 23.0691 15.9796 23.0695ZM11.5495 15.9796C11.5495 15.3978 11.6641 14.8217 11.8868 14.2842C12.1094 13.7468 12.4357 13.2584 12.8471 12.847C13.2585 12.4357 13.7468 12.1093 14.2843 11.8867C14.8218 11.6641 15.3979 11.5495 15.9796 11.5495C16.5614 11.5495 17.1375 11.6641 17.6749 11.8867C18.2124 12.1093 18.7008 12.4357 19.1122 12.847C19.5235 13.2584 19.8498 13.7468 20.0725 14.2842C20.2951 14.8217 20.4097 15.3978 20.4097 15.9796C20.4097 17.1545 19.943 18.2813 19.1122 19.1121C18.2814 19.9429 17.1546 20.4096 15.9796 20.4096C14.8047 20.4096 13.6779 19.9429 12.8471 19.1121C12.0163 18.2813 11.5495 17.1545 11.5495 15.9796ZM24.0731 10.88H22.0059C21.7712 10.8794 21.5462 10.7858 21.3803 10.6199C21.2143 10.4539 21.1208 10.229 21.1201 9.99428V7.92452C21.1201 7.43556 21.5169 7.04004 22.0046 7.04004H24.0718C24.5633 7.04004 24.9601 7.43556 24.9601 7.92452V9.993C24.9601 10.4807 24.5633 10.88 24.0731 10.88Z" fill="#AEC343"/>
</svg>
