<svg width="33" height="33" viewBox="0 0 33 33" fill="none" xmlns="http://www.w3.org/2000/svg">
<path d="M16.5 0.515625C7.38728 0.515625 0 7.67205 0 16.5C0 25.328 7.38728 32.4844 16.5 32.4844C25.6127 32.4844 33 25.328 33 16.5C33 7.67205 25.6127 0.515625 16.5 0.515625ZM24.148 11.3863C23.8997 13.9138 22.8253 20.0474 22.2785 22.8783C22.0472 24.0761 21.5917 24.4778 21.1509 24.517C20.1928 24.6025 19.4651 23.9036 18.537 23.3142C17.0848 22.392 16.2644 21.818 14.8547 20.9181C13.2257 19.8781 14.2817 19.3067 15.2101 18.3722C15.4531 18.1277 19.6749 14.4077 19.7566 14.0702C19.7668 14.028 19.7766 13.8704 19.6798 13.7876C19.5831 13.7049 19.441 13.7329 19.3382 13.7554C19.1926 13.7874 16.8726 15.2729 12.3784 18.2118C11.7199 18.6498 11.1235 18.8633 10.5891 18.8521C9.99993 18.8398 8.86669 18.5294 8.02419 18.2641C6.99088 17.9387 6.1696 17.7667 6.24113 17.2141C6.27838 16.9262 6.68756 16.6318 7.46865 16.3311C12.2788 14.3009 15.4862 12.9624 17.0911 12.3156C21.6733 10.4692 22.6254 10.1485 23.246 10.1378C23.3826 10.1356 23.6877 10.1684 23.8854 10.3238C24.0169 10.4345 24.1007 10.589 24.1203 10.7566C24.1538 10.9649 24.1631 11.1761 24.148 11.3863Z" fill="white"/>
</svg>
