<svg width="32" height="32" viewBox="0 0 32 32" fill="none" xmlns="http://www.w3.org/2000/svg">
<rect width="32" height="32" rx="3.15556" fill="white"/>
<path d="M27.2 13.6955C24.9988 13.7008 22.8515 13.0143 21.0615 11.733V20.669C21.0609 22.3241 20.555 23.9395 19.6116 25.2993C18.6681 26.659 17.3319 27.6984 15.7818 28.2783C14.2317 28.8582 12.5415 28.951 10.9372 28.5444C9.33285 28.1378 7.89091 27.251 6.80416 26.0028C5.71741 24.7545 5.03764 23.2042 4.85575 21.5592C4.67387 19.9142 4.99853 18.2529 5.78633 16.7973C6.57414 15.3418 7.78752 14.1615 9.26425 13.4142C10.741 12.6669 12.4107 12.3883 14.05 12.6155V17.11C13.2998 16.874 12.4943 16.8812 11.7484 17.1303C11.0025 17.3795 10.3544 17.858 9.89667 18.4974C9.43893 19.1369 9.19496 19.9047 9.19959 20.6911C9.20422 21.4775 9.45722 22.2423 9.92246 22.8763C10.3877 23.5104 11.0414 23.9812 11.7902 24.2215C12.5389 24.4619 13.3445 24.4595 14.0919 24.2147C14.8392 23.97 15.4901 23.4953 15.9516 22.8585C16.4131 22.2217 16.6615 21.4554 16.6615 20.669V3.20001H21.0615C21.0585 3.57158 21.0896 3.94265 21.1545 4.30851C21.3074 5.12525 21.6253 5.90222 22.0888 6.59188C22.5523 7.28154 23.1516 7.86941 23.85 8.31951C24.8437 8.97656 26.0087 9.32676 27.2 9.32651V13.6955Z" fill="#AEC343"/>
</svg>
