<svg width="35" height="27" viewBox="0 0 35 27" fill="none" xmlns="http://www.w3.org/2000/svg">
<path d="M33.3991 4.48224C33.0175 2.86554 31.893 1.59228 30.4652 1.16018C27.8773 0.375 17.5 0.375 17.5 0.375C17.5 0.375 7.1227 0.375 4.53471 1.16018C3.10694 1.59234 1.98244 2.86554 1.60079 4.48224C0.907349 7.4126 0.907349 13.5265 0.907349 13.5265C0.907349 13.5265 0.907349 19.6404 1.60079 22.5708C1.98244 24.1875 3.10694 25.4077 4.53471 25.8398C7.1227 26.625 17.5 26.625 17.5 26.625C17.5 26.625 27.8772 26.625 30.4652 25.8398C31.893 25.4077 33.0175 24.1875 33.3991 22.5708C34.0926 19.6404 34.0926 13.5265 34.0926 13.5265C34.0926 13.5265 34.0926 7.4126 33.3991 4.48224ZM14.106 19.0775V7.97554L22.7794 13.5267L14.106 19.0775Z" fill="white"/>
</svg>
