<svg width="335" height="103" viewBox="0 0 335 103" fill="none" xmlns="http://www.w3.org/2000/svg">
<path d="M120.745 64.7011H115.724V76.374H113.716V64.7011H108.695V62.9438H120.745V64.7011Z" fill="white"/>
<path d="M125.891 62.9438H127.899V73.2361L136.559 62.9438H138.568V76.374H136.434V66.0817L127.773 76.374H125.891V62.9438Z" fill="white"/>
<path d="M146.476 62.9438L150.242 67.8389L154.133 62.9438H156.517L151.622 69.4706L157.019 76.374H154.509L150.242 70.9768L146.1 76.374H143.715L148.986 69.4706L144.091 62.9438H146.476Z" fill="white"/>
<path d="M170.954 72.986H163.172L161.54 76.3749H159.406L166.059 63.0703H168.192L174.845 76.3749H172.585L170.954 72.986ZM170.201 71.4798L167.063 64.953L163.925 71.4798H170.201Z" fill="white"/>
<path d="M189.904 62.9438V76.2485H187.896V72.3575H183.879C183.628 72.3575 183.503 72.3575 183.252 72.3575L180.365 76.2485H178.105L181.369 71.9809C179.235 71.3534 178.105 69.8472 178.105 67.7134C178.105 64.7011 180.49 62.9438 184.005 62.9438H189.904ZM184.005 70.8513H187.896V64.7011H184.13C181.62 64.7011 180.239 65.8307 180.239 67.8389C180.239 69.7217 181.494 70.8513 184.005 70.8513Z" fill="white"/>
<path d="M217.014 67.7134C217.014 70.6003 214.754 72.3575 210.864 72.3575H207.224V76.374H205.09V62.9438H210.864C214.629 62.9438 217.014 64.7011 217.014 67.7134ZM214.88 67.7134C214.88 65.8307 213.499 64.7011 210.738 64.7011H207.224V70.7258H210.738C213.499 70.6003 214.88 69.5962 214.88 67.7134Z" fill="white"/>
<path d="M221.41 69.7217C221.41 65.8307 224.674 62.9438 229.192 62.9438C233.711 62.9438 236.974 65.8307 236.974 69.7217C236.974 73.6126 233.711 76.4995 229.192 76.4995C224.674 76.4995 221.41 73.6126 221.41 69.7217ZM234.84 69.7217C234.84 66.7093 232.455 64.5755 229.192 64.5755C225.929 64.5755 223.418 66.7093 223.418 69.7217C223.418 72.734 225.803 74.8678 229.192 74.8678C232.455 74.7423 234.84 72.6085 234.84 69.7217Z" fill="white"/>
<path d="M241.742 69.7217C241.742 65.8307 245.006 62.9438 249.524 62.9438C251.783 62.9438 253.792 63.6969 255.047 65.0776L253.666 66.3328C252.536 65.2031 251.156 64.7011 249.524 64.7011C246.261 64.7011 243.75 66.8348 243.75 69.8472C243.75 72.8595 246.261 74.9933 249.524 74.9933C251.156 74.9933 252.536 74.4912 253.666 73.3616L255.047 74.6168C253.666 75.9974 251.783 76.7505 249.399 76.7505C245.006 76.4995 241.742 73.6126 241.742 69.7217Z" fill="white"/>
<path d="M265.591 70.4748H262.579V76.374H260.445V62.9438H262.579V68.8431H265.591L270.236 62.9438H272.495L267.223 69.4706L272.746 76.374H270.361L265.591 70.4748Z" fill="white"/>
<path d="M276.133 69.7217C276.133 65.8307 279.396 62.9438 283.915 62.9438C288.433 62.9438 291.697 65.8307 291.697 69.7217C291.697 73.6126 288.433 76.4995 283.915 76.4995C279.396 76.4995 276.133 73.6126 276.133 69.7217ZM289.688 69.7217C289.688 66.7093 287.304 64.5755 284.04 64.5755C280.777 64.5755 278.267 66.7093 278.267 69.7217C278.267 72.734 280.651 74.8678 284.04 74.8678C287.178 74.7423 289.688 72.6085 289.688 69.7217Z" fill="white"/>
<path d="M316.048 62.9438V76.374H297.598V62.9438H299.731V74.7423H305.756V62.9438H307.89V74.7423H313.915V62.9438H316.048Z" fill="white"/>
<path d="M335.002 71.8554C335.002 74.8678 332.868 76.374 329.228 76.374H323.203V62.9438H325.337V67.5879H329.73C332.993 67.7134 335.002 69.0941 335.002 71.8554ZM332.868 71.8554C332.868 69.9727 331.487 69.0941 329.102 69.0941H325.211V74.7423H329.102C331.487 74.8678 332.868 73.8637 332.868 71.8554Z" fill="white"/>
<path d="M122.881 95.5782C122.881 97.8375 120.999 99.2182 117.484 99.2182H110.832V85.9136H117.108C120.246 85.9136 122.254 87.1687 122.254 89.3025C122.254 90.8087 121.375 91.8128 119.995 92.3148C121.752 92.6914 122.881 93.821 122.881 95.5782ZM112.715 91.6873H116.857C118.865 91.6873 119.995 90.9342 119.995 89.5535C119.995 88.1728 118.865 87.4198 116.857 87.4198H112.715V91.6873ZM120.748 95.4527C120.748 93.9465 119.618 93.1935 117.359 93.1935H112.715V97.712H117.359C119.618 97.712 120.748 96.9589 120.748 95.4527Z" fill="white"/>
<path d="M138.446 95.8293H130.664L129.032 99.2182H126.898L133.551 85.9136H135.684L142.337 99.2182H140.078L138.446 95.8293ZM137.693 94.3231L134.555 87.7963L131.417 94.3231H137.693Z" fill="white"/>
<path d="M165.681 85.9136V99.2182H147.23V85.9136H149.364V97.5865H155.389V85.9136H157.523V97.5865H163.547V85.9136H165.681Z" fill="white"/>
<path d="M183.38 97.5865V99.2182H172.711V85.9136H183.129V87.5453H174.845V91.6873H182.125V93.1935H174.845V97.5865H183.38Z" fill="white"/>
<path d="M198.817 87.5453H191.286V99.2182H189.152V85.9136H198.817V87.5453Z" fill="white"/>
<path d="M200.699 92.5659C200.699 88.6749 203.963 85.7881 208.481 85.7881C213 85.7881 216.263 88.6749 216.263 92.5659C216.263 96.4569 213 99.3437 208.481 99.3437C204.088 99.3437 200.699 96.4569 200.699 92.5659ZM214.255 92.5659C214.255 89.5536 211.87 87.4198 208.607 87.4198C205.343 87.4198 202.833 89.5536 202.833 92.5659C202.833 95.5783 205.218 97.712 208.607 97.712C211.87 97.712 214.255 95.4528 214.255 92.5659Z" fill="white"/>
<path d="M244.378 97.5865V102.105H242.37V99.2182H230.321V102.105H228.312V97.5865H229.066C231.074 97.461 231.576 94.1976 231.701 90.1811L231.827 85.9136H242.119V97.5865H244.378ZM231.827 97.5865H240.111V87.5453H233.71L233.584 90.3066C233.459 93.57 233.082 96.5824 231.827 97.5865Z" fill="white"/>
<path d="M248.52 92.5659C248.52 88.6749 251.783 85.7881 256.301 85.7881C260.82 85.7881 264.083 88.6749 264.083 92.5659C264.083 96.4569 260.82 99.3437 256.301 99.3437C251.908 99.3437 248.52 96.4569 248.52 92.5659ZM262.075 92.5659C262.075 89.5536 259.69 87.4198 256.427 87.4198C253.164 87.4198 250.653 89.5536 250.653 92.5659C250.653 95.5783 253.038 97.712 256.427 97.712C259.565 97.712 262.075 95.4528 262.075 92.5659Z" fill="white"/>
<path d="M283.665 99.2182V89.5535L278.393 97.5865H277.389L272.118 89.5535V99.2182H270.109V85.9136H271.741L277.891 95.2017L283.916 85.9136H285.673V99.2182H283.665Z" fill="white"/>
<path d="M302.239 95.8293H294.457L292.825 99.2182H290.691L297.344 85.9136H299.477L306.13 99.2182H303.87L302.239 95.8293ZM301.611 94.3231L298.473 87.7963L295.335 94.3231H301.611Z" fill="white"/>
<path d="M96.6487 40.6033C92.0046 31.3152 79.5786 23.4077 63.0106 23.4077C52.9694 23.4077 45.313 25.7925 38.5352 32.0683C38.7862 32.8213 39.1627 33.951 39.2882 34.4531C45.1875 27.4242 52.3418 24.5373 63.0106 24.5373C80.8338 24.5373 92.6322 33.0724 96.7742 44.2432C97.2762 45.6239 95.8956 49.5149 94.7659 53.9079L95.3935 54.661L99.5355 48.3852C100.289 47.1301 99.0334 45.2473 96.6487 40.6033Z" fill="white"/>
<path d="M98.5274 72.1069C95.6405 86.7922 84.4697 98.2141 63.0066 98.2141C42.6732 98.2141 29.2431 82.7757 29.3686 61.3126C29.3686 53.2796 30.4982 46.6273 34.0126 40.8536C33.7616 40.1005 33.5106 39.3475 33.0085 37.9668C27.7369 44.3681 25.2266 52.15 25.2266 61.3126C25.2266 82.2736 41.669 99.2182 62.8811 99.2182C83.7166 99.2182 96.6447 88.4239 99.657 72.1069H98.5274Z" fill="white"/>
<path d="M48.6999 69.5969L26.8602 2.57176C26.1072 0.312485 24.9775 0.3125 22.7182 0.3125H16.568V1.44213C23.7224 1.94419 24.4754 5.70964 25.3541 8.21994L25.7306 9.72614L6.15024 69.7224C5.02061 73.1113 3.51442 74.8685 0 75.1195V76.2492H9.66466V75.1195C6.15024 74.743 7.15436 70.9775 7.65642 69.7224L18.1997 37.2139H32.885C32.7594 36.8374 32.7595 36.8374 32.6339 36.3353L18.5762 36.2098L26.6092 11.3578C29.245 19.6418 32.0064 27.8003 34.7677 36.2098L35.1442 37.3395C38.6587 48.2593 42.4241 59.3046 45.9385 70.2244C47.0682 73.6133 46.4406 75.1195 43.5537 75.3705V76.5002H54.348V75.3705C51.0847 74.743 49.8295 72.2327 48.6999 69.5969Z" fill="white"/>
</svg>
