<svg width="41" height="40" viewBox="0 0 41 40" fill="none" xmlns="http://www.w3.org/2000/svg">
<g clip-path="url(#clip0_2072_27151)">
<path d="M20.5 40C31.5457 40 40.5 31.0457 40.5 20C40.5 8.9543 31.5457 0 20.5 0C9.4543 0 0.5 8.9543 0.5 20C0.5 31.0457 9.4543 40 20.5 40Z" fill="#DE3F6B"/>
<path d="M12.69 13.75H13.82C15.5863 13.9175 17.22 14.7763 18.4288 16.0125C20.94 18.5613 22.32 22.1575 25.5163 24.0538C27.8263 25.425 31.0575 24.3038 32.1925 21.9863C32.77 21.9763 33.3512 21.9763 33.9287 21.9788C33.1338 24.3325 30.8175 26.0238 28.285 26.25H27.3525C25.7938 26.125 24.2775 25.545 23.0988 24.5425C21.3863 23.1388 20.2863 21.2125 18.955 19.4975C17.81 17.9812 16.6425 16.2763 14.7475 15.5875C12.4062 14.7388 9.5475 16.0662 8.69375 18.3212C7.94375 20.1787 8.55375 22.4813 10.2312 23.6713C11.4887 24.6112 13.24 24.9625 14.75 24.415C16.4275 23.83 17.6725 22.5 18.6275 21.09C19.0037 21.6112 19.37 22.14 19.7325 22.6725C18.2475 24.4813 16.1875 26.035 13.7375 26.25H12.7337C9.64625 26.0425 6.9625 23.505 6.75 20.5075V19.5263C6.95 16.535 9.6 13.9675 12.69 13.75ZM27.29 13.75H28.2275C31.3438 13.9463 33.9937 16.535 34.25 19.5325V21.07C31.6788 21.0925 29.105 21.0775 26.5337 21.08C26.5362 20.63 26.5362 20.1837 26.5337 19.7337C28.5662 19.7287 30.5963 19.7425 32.625 19.7288C32.4813 18.9338 32.295 18.12 31.8075 17.4462C30.62 15.6912 28.1088 14.9737 26.1013 15.7337C24.5013 16.3087 23.2962 17.5662 22.3675 18.9087C22.01 18.4125 21.655 17.9087 21.3113 17.4012C22.7775 15.5662 24.8237 13.9787 27.29 13.75Z" fill="#FCFFF3"/>
</g>
<defs>
<clipPath id="clip0_2072_27151">
<rect width="40" height="40" fill="white" transform="translate(0.5)"/>
</clipPath>
</defs>
</svg>
