<svg width="40" height="41" viewBox="0 0 40 41" fill="none" xmlns="http://www.w3.org/2000/svg">
<path d="M20 40.5C31.0457 40.5 40 31.5457 40 20.5C40 9.4543 31.0457 0.5 20 0.5C8.9543 0.5 0 9.4543 0 20.5C0 31.5457 8.9543 40.5 20 40.5Z" fill="#F28F01"/>
<path fill-rule="evenodd" clip-rule="evenodd" d="M22.6887 17.6487L20.2625 12.8787C20.7675 11.7787 21.02 11.1537 21.02 11.01C21.02 10.4937 20.68 10.1163 20.0012 9.875H27.4362C26.52 10.2875 25.705 11.3187 24.9925 12.97L22.6887 17.6487ZM19.0437 25.0587L17.9125 27.3587H24.5837C27.605 27.3587 29.625 26.7925 30.6437 25.6588L27.0788 31.125H8.8475C10.8163 30.7463 12.8025 28.375 14.805 24.0075C15.48 22.665 16.0988 21.425 16.6638 20.29L19.0437 25.0587ZM6.25 25.8125C7.72625 24.9362 13.125 15.5975 13.125 12.97C13.125 12.3512 12.7513 11.7662 12.005 11.2162H17.81L22.8512 21.1188L27.7413 11.2162H33.75C31.2038 11.8863 26.1625 23.8988 26.1625 25.2962C26.1625 25.5712 26.2125 25.7437 26.315 25.8125H21.0188L16.4862 16.735L12.005 25.8125H6.25Z" fill="white"/>
</svg>
