<svg width="27" height="29" viewBox="0 0 27 29" fill="none" xmlns="http://www.w3.org/2000/svg">
<path d="M26.3907 15.377C26.2778 15.2604 26.1428 15.1676 25.9938 15.1043C25.8448 15.041 25.6846 15.0084 25.5229 15.0084C25.3611 15.0084 25.201 15.041 25.052 15.1043C24.9029 15.1676 24.768 15.2604 24.6551 15.377L15.928 24.1644C14.4049 25.5999 12.3872 26.383 10.3013 26.3483C8.21539 26.3136 6.22458 25.4638 4.7494 23.9784C3.27423 22.4931 2.43026 20.4885 2.3958 18.3882C2.36135 16.2878 3.13908 14.2563 4.56472 12.7227L13.2918 3.9353C14.2189 2.99958 15.4773 2.47298 16.79 2.47144C18.1027 2.46989 19.3622 2.99352 20.2915 3.92705C21.2208 4.86059 21.7438 6.12757 21.7453 7.44933C21.7469 8.77109 21.2269 10.0394 20.2997 10.9751L11.5562 19.7624C11.2088 20.1122 10.7376 20.3088 10.2463 20.3088C9.75505 20.3088 9.28389 20.1122 8.93648 19.7624C8.58908 19.4126 8.39388 18.9382 8.39388 18.4435C8.39388 17.9488 8.58908 17.4744 8.93648 17.1246L17.6636 8.3207C17.8805 8.08631 17.9986 7.77631 17.993 7.45597C17.9873 7.13563 17.8585 6.83001 17.6335 6.60346C17.4085 6.37692 17.105 6.24711 16.7868 6.24146C16.4687 6.23581 16.1608 6.35471 15.928 6.57312L7.20089 15.377C6.39318 16.1903 5.93939 17.2934 5.93939 18.4435C5.93939 19.5937 6.39318 20.6967 7.20089 21.51C8.0086 22.3233 9.10407 22.7802 10.2463 22.7802C11.3886 22.7802 12.4841 22.3233 13.2918 21.51L22.0353 12.7227C23.4228 11.3235 24.2013 9.42656 24.1998 7.44933C24.1983 5.47209 23.4167 3.57649 22.0271 2.17947C20.6375 0.782448 18.7536 -0.00154364 16.79 2.28192e-06C14.8263 0.0015482 12.9437 0.788513 11.5562 2.18772L2.82913 10.9751C0.969694 12.9775 -0.0442221 15.6291 0.00148056 18.3701C0.0471832 21.111 1.14893 23.7269 3.07407 25.6653C4.99921 27.6038 7.59712 28.7131 10.3193 28.7591C13.0415 28.8052 15.6749 27.7842 17.6636 25.912L26.3907 17.1246C26.5065 17.0109 26.5986 16.875 26.6615 16.725C26.7244 16.5749 26.7567 16.4137 26.7567 16.2508C26.7567 16.0879 26.7244 15.9267 26.6615 15.7766C26.5986 15.6265 26.5065 15.4907 26.3907 15.377Z" fill="#E1E1E5"/>
</svg>
