<svg width="32" height="32" viewBox="0 0 32 32" fill="none" xmlns="http://www.w3.org/2000/svg">
<path d="M29.5336 23.4381L25.111 19.0228C24.4891 18.4019 23.5216 18.4019 22.8997 19.0228L20.6884 21.2304C20.1356 21.7823 19.2373 21.8513 18.6153 21.4374C15.2984 19.3678 12.5343 16.6082 10.5303 13.3658C10.1157 12.6759 10.1848 11.8481 10.7376 11.2961L12.9489 9.08853C13.5709 8.46764 13.5709 7.5018 12.9489 6.88091L8.52636 2.46567C7.90444 1.84478 6.937 1.84478 6.31508 2.46567L3.13635 5.63912C2.03071 6.74293 1.6852 8.46763 2.30712 9.91638C4.242 14.2626 6.8679 18.3329 10.2539 21.7133C13.64 25.0938 17.717 27.6463 22.0705 29.647C23.5216 30.3369 25.2492 29.9919 26.3548 28.8191L29.5336 25.6457C30.1555 25.0938 30.1555 24.0589 29.5336 23.4381Z" stroke="#D1F42A" stroke-width="2.8346" stroke-miterlimit="10"/>
</svg>
