<svg width="126" height="126" viewBox="0 0 126 126" fill="none" xmlns="http://www.w3.org/2000/svg">
<path d="M80.0716 70.198C80.0716 84.0049 68.8769 95.1997 55.07 95.1997C41.2631 95.1997 30.0684 84.0049 30.0684 70.198C30.0684 56.3912 41.2631 45.1964 55.07 45.1964" stroke="#D1F42A" stroke-width="12" stroke-miterlimit="10"/>
<path d="M104.141 70.1981C104.141 97.2521 82.1244 119.268 55.0704 119.268C28.0164 119.268 6 97.2521 6 70.1981C6 43.144 28.0164 21.1277 55.0704 21.1277" stroke="#D1F42A" stroke-width="12" stroke-miterlimit="10"/>
<path d="M52.458 72.8101L74.4744 50.6072" stroke="#D1F42A" stroke-width="12" stroke-miterlimit="10"/>
<path d="M74.4747 50.6072L92.1997 53.4059L112.537 33.0687L94.8118 30.27L92.1997 12.7316L71.8625 33.0687L74.4747 50.6072Z" stroke="#D1F42A" stroke-width="12" stroke-miterlimit="10"/>
</svg>
