<svg width="143" height="46" viewBox="0 0 143 46" fill="none" xmlns="http://www.w3.org/2000/svg">
<rect width="143" height="46" rx="23" fill="#4E5159"/>
<path d="M17.2912 30V16.9091H19.6626V28.0121H25.4283V30H17.2912ZM38.6742 23.4545C38.6742 24.8651 38.41 26.0732 37.8816 27.0788C37.3574 28.0803 36.6415 28.8473 35.7338 29.38C34.8304 29.9126 33.8056 30.179 32.6593 30.179C31.513 30.179 30.486 29.9126 29.5783 29.38C28.6749 28.843 27.959 28.0739 27.4306 27.0724C26.9064 26.0668 26.6444 24.8608 26.6444 23.4545C26.6444 22.044 26.9064 20.8381 27.4306 19.8366C27.959 18.831 28.6749 18.0618 29.5783 17.5291C30.486 16.9964 31.513 16.7301 32.6593 16.7301C33.8056 16.7301 34.8304 16.9964 35.7338 17.5291C36.6415 18.0618 37.3574 18.831 37.8816 19.8366C38.41 20.8381 38.6742 22.044 38.6742 23.4545ZM36.29 23.4545C36.29 22.4616 36.1344 21.6243 35.8233 20.9425C35.5165 20.2564 35.0904 19.7386 34.5449 19.3892C33.9995 19.0355 33.3709 18.8587 32.6593 18.8587C31.9476 18.8587 31.3191 19.0355 30.7736 19.3892C30.2282 19.7386 29.7999 20.2564 29.4888 20.9425C29.182 21.6243 29.0286 22.4616 29.0286 23.4545C29.0286 24.4474 29.182 25.2869 29.4888 25.973C29.7999 26.6548 30.2282 27.1726 30.7736 27.5263C31.3191 27.8757 31.9476 28.0504 32.6593 28.0504C33.3709 28.0504 33.9995 27.8757 34.5449 27.5263C35.0904 27.1726 35.5165 26.6548 35.8233 25.973C36.1344 25.2869 36.29 24.4474 36.29 23.4545ZM49.6861 21.0895C49.5795 20.7443 49.4325 20.4354 49.245 20.1626C49.0618 19.8857 48.8402 19.6491 48.5803 19.4531C48.3246 19.2571 48.0305 19.1101 47.6982 19.0121C47.3658 18.9098 47.0036 18.8587 46.6115 18.8587C45.9084 18.8587 45.282 19.0355 44.7322 19.3892C44.1825 19.7429 43.75 20.2628 43.4347 20.9489C43.1236 21.6307 42.968 22.4616 42.968 23.4418C42.968 24.4304 43.1236 25.2678 43.4347 25.9538C43.7457 26.6399 44.1783 27.1619 44.7322 27.5199C45.2862 27.8736 45.9297 28.0504 46.6626 28.0504C47.3274 28.0504 47.9027 27.9226 48.3885 27.6669C48.8786 27.4112 49.2557 27.049 49.5199 26.5803C49.7841 26.1072 49.9162 25.5533 49.9162 24.9183L50.4531 25.0014H46.8991V23.1477H52.2109V24.7202C52.2109 25.8409 51.9723 26.8104 51.495 27.6286C51.0178 28.4467 50.3615 29.0774 49.5263 29.5206C48.6911 29.9595 47.7322 30.179 46.6499 30.179C45.4439 30.179 44.3849 29.9084 43.473 29.3672C42.5653 28.8217 41.8558 28.0483 41.3445 27.0469C40.8374 26.0412 40.5838 24.848 40.5838 23.4673C40.5838 22.4105 40.733 21.4666 41.0312 20.6357C41.3338 19.8047 41.7557 19.0994 42.2969 18.5199C42.8381 17.9361 43.473 17.4929 44.2017 17.1903C44.9304 16.8835 45.723 16.7301 46.5795 16.7301C47.304 16.7301 47.9794 16.8366 48.6058 17.0497C49.2322 17.2585 49.7884 17.5568 50.2741 17.9446C50.7642 18.3324 51.1669 18.7926 51.4822 19.3253C51.7976 19.858 52.0043 20.446 52.1023 21.0895H49.6861ZM66.2015 23.4545C66.2015 24.8651 65.9373 26.0732 65.4089 27.0788C64.8848 28.0803 64.1689 28.8473 63.2612 29.38C62.3578 29.9126 61.3329 30.179 60.1866 30.179C59.0403 30.179 58.0133 29.9126 57.1056 29.38C56.2022 28.843 55.4863 28.0739 54.9579 27.0724C54.4338 26.0668 54.1717 24.8608 54.1717 23.4545C54.1717 22.044 54.4338 20.8381 54.9579 19.8366C55.4863 18.831 56.2022 18.0618 57.1056 17.5291C58.0133 16.9964 59.0403 16.7301 60.1866 16.7301C61.3329 16.7301 62.3578 16.9964 63.2612 17.5291C64.1689 18.0618 64.8848 18.831 65.4089 19.8366C65.9373 20.8381 66.2015 22.044 66.2015 23.4545ZM63.8173 23.4545C63.8173 22.4616 63.6618 21.6243 63.3507 20.9425C63.0439 20.2564 62.6177 19.7386 62.0723 19.3892C61.5268 19.0355 60.8983 18.8587 60.1866 18.8587C59.475 18.8587 58.8464 19.0355 58.301 19.3892C57.7555 19.7386 57.3272 20.2564 57.0162 20.9425C56.7093 21.6243 56.5559 22.4616 56.5559 23.4545C56.5559 24.4474 56.7093 25.2869 57.0162 25.973C57.3272 26.6548 57.7555 27.1726 58.301 27.5263C58.8464 27.8757 59.475 28.0504 60.1866 28.0504C60.8983 28.0504 61.5268 27.8757 62.0723 27.5263C62.6177 27.1726 63.0439 26.6548 63.3507 25.973C63.6618 25.2869 63.8173 24.4474 63.8173 23.4545ZM67.2882 18.897V16.9091H77.7328V18.897H73.6866V30H71.3343V18.897H67.2882ZM78.8514 16.9091H81.5297L84.7321 22.7003H84.8599L88.0623 16.9091H90.7406L85.9785 25.1165V30H83.6135V25.1165L78.8514 16.9091ZM91.5252 16.9091H94.2035L97.4059 22.7003H97.5337L100.736 16.9091H103.414L98.6523 25.1165V30H96.2873V25.1165L91.5252 16.9091ZM105.094 30V16.9091H110.003C111.009 16.9091 111.852 17.0966 112.534 17.4716C113.22 17.8466 113.738 18.3622 114.088 19.0185C114.441 19.6705 114.618 20.4119 114.618 21.2429C114.618 22.0824 114.441 22.8281 114.088 23.4801C113.734 24.1321 113.212 24.6456 112.521 25.0206C111.831 25.3913 110.981 25.5767 109.971 25.5767H106.718V23.6271H109.651C110.24 23.6271 110.721 23.5249 111.096 23.3203C111.471 23.1158 111.748 22.8345 111.927 22.4766C112.11 22.1186 112.202 21.7074 112.202 21.2429C112.202 20.7784 112.11 20.3693 111.927 20.0156C111.748 19.6619 111.469 19.3871 111.09 19.1911C110.715 18.9908 110.231 18.8906 109.639 18.8906H107.465V30H105.094ZM116.678 30V16.9091H125.192V18.897H119.049V22.451H124.751V24.4389H119.049V28.0121H125.243V30H116.678Z" fill="#040404"/>
</svg>
