<svg width="24" height="17" viewBox="0 0 24 17" fill="none" xmlns="http://www.w3.org/2000/svg">
<path d="M5.80664 15.6572C8.18513 15.6572 10.1133 13.7291 10.1133 11.3506C10.1133 8.97209 8.18513 7.04395 5.80664 7.04395C3.42815 7.04395 1.5 8.97209 1.5 11.3506C1.5 13.7291 3.42815 15.6572 5.80664 15.6572Z" stroke="#013C44" stroke-width="2.5" stroke-miterlimit="10"/>
<path d="M10.0723 11.3096C10.6465 11.0225 11.3027 10.8584 12 10.8584C12.6973 10.8584 13.3535 11.0225 13.9277 11.3096" stroke="#013C44" stroke-width="2.5" stroke-miterlimit="10"/>
<path d="M1.70508 10.1201L4.37109 2.57324C4.61719 1.83496 5.31445 1.34277 6.09375 1.34277H7.98047" stroke="#013C44" stroke-width="2.5" stroke-miterlimit="10"/>
<path d="M18.1934 15.6572C20.5719 15.6572 22.5 13.7291 22.5 11.3506C22.5 8.97209 20.5719 7.04395 18.1934 7.04395C15.8149 7.04395 13.8867 8.97209 13.8867 11.3506C13.8867 13.7291 15.8149 15.6572 18.1934 15.6572Z" stroke="#013C44" stroke-width="2.5" stroke-miterlimit="10"/>
<path d="M22.2949 10.1201L19.6289 2.57324C19.3828 1.83496 18.6855 1.34277 17.9062 1.34277H16.0195" stroke="#013C44" stroke-width="2.5" stroke-miterlimit="10"/>
</svg>
