<svg width="24" height="17" viewBox="0 0 24 17" fill="none" xmlns="http://www.w3.org/2000/svg">
<path d="M0.445068 16.123V0.876953H10.7411V3.75895H3.87707V6.75095H9.97107V9.56695H3.87707V13.241H11.2471V16.123H0.445068Z" fill="#013C44"/>
<path d="M13.5669 4.94695C14.1242 4.78562 14.8429 4.63895 15.7229 4.50695C16.6029 4.36029 17.5269 4.28695 18.4949 4.28695C19.4775 4.28695 20.2915 4.41895 20.9369 4.68295C21.5969 4.93229 22.1175 5.29162 22.4989 5.76095C22.8802 6.23029 23.1515 6.78762 23.3129 7.43295C23.4742 8.07829 23.5549 8.79695 23.5549 9.58895V16.123H20.2769V9.98495C20.2769 8.92895 20.1375 8.18095 19.8589 7.74095C19.5802 7.30095 19.0595 7.08095 18.2969 7.08095C18.0622 7.08095 17.8129 7.09562 17.5489 7.12495C17.2849 7.13962 17.0502 7.16162 16.8449 7.19095V16.123H13.5669V4.94695Z" fill="#013C44"/>
</svg>
