<svg width="24" height="15" viewBox="0 0 24 15" fill="none" xmlns="http://www.w3.org/2000/svg">
<path d="M13.0273 14.7089C5.13167 14.7089 0.629762 9.30662 0.445068 0.302803H4.41598C4.54296 6.9056 7.45189 9.6991 9.76056 10.2763V0.302803H13.4891V5.99368C15.7631 5.75127 18.1641 3.15401 18.9722 0.29126H22.6891C22.386 1.77316 21.7806 3.17663 20.9107 4.414C20.0408 5.65138 18.925 6.69605 17.6331 7.48277C19.0748 8.20034 20.348 9.21537 21.3687 10.4609C22.3895 11.7065 23.1346 13.1543 23.5549 14.7089H19.457C18.5797 11.9731 16.3864 9.84916 13.4891 9.56058V14.7089H13.0389H13.0273Z" fill="#013C44"/>
</svg>
