<svg width="22" height="17" viewBox="0 0 22 17" fill="none" xmlns="http://www.w3.org/2000/svg">
<path d="M1.94364 7.31846C7.58077 4.91938 11.3397 3.33777 13.2206 2.57361C18.5906 0.391776 19.7065 0.0127698 20.4338 0.00012133C20.5938 -0.00249777 20.9514 0.0362266 21.1831 0.219862C21.3787 0.37492 21.4326 0.584381 21.4583 0.731393C21.4841 0.878405 21.5162 1.2133 21.4907 1.47498C21.1997 4.46174 19.9405 11.7098 19.2999 15.055C19.0288 16.4705 18.4951 16.9451 17.9784 16.9916C16.8554 17.0925 16.0027 16.2667 14.9151 15.5702C13.2132 14.4805 12.2517 13.8021 10.5997 12.7387C8.69056 11.5097 9.92819 10.8343 11.0162 9.73042C11.301 9.44153 16.2486 5.04555 16.3444 4.64677C16.3564 4.59689 16.3675 4.41098 16.2544 4.31282C16.1414 4.21465 15.9745 4.24822 15.8541 4.27492C15.6834 4.31276 12.9646 6.06814 7.69761 9.54107C6.92588 10.0587 6.22687 10.3109 5.60058 10.2977C4.91015 10.2831 3.58204 9.91638 2.59472 9.60288C1.38374 9.21836 0.421278 9.01506 0.505087 8.36203C0.54874 8.0219 1.02826 7.67404 1.94364 7.31846Z" fill="#013C44"/>
</svg>
